# xmcd
#
# Track frame offsets:
#  150
#  20867
#  37347
#  56961
#  77362
#  105950
#  127755
#  149445
#
# Disc length: 2319 seconds
#
# Revision: 0
# Processed by: cddbd v1.5.1PL0 Copyright (c) Steve Scherf et al.
# Submitted via: Collectorz.com Music Collector 6.9
#
DISCID=69090d08
DTITLE=guy clark, joe ely, john hiatt and lyle lovett - Live At The World Cafe, Wxpn Philadelphia, Nov 19 2004
DYEAR=2004
DGENRE=
TTITLE0=Interview
TTITLE1=guy clark - Dancin' Days
TTITLE2=Interview
TTITLE3=joe ely - Letter To Laredo
TTITLE4=Interview
TTITLE5=john hiatt - New Song
TTITLE6=Interview
TTITLE7=lyle lovett - My Baby Don't Tolerate
EXTD=
EXTT0=
EXTT1=
EXTT2=
EXTT3=
EXTT4=
EXTT5=
EXTT6=
EXTT7=
PLAYORDER=
